<svg 
 xmlns="http://www.w3.org/2000/svg"
 xmlns:xlink="http://www.w3.org/1999/xlink"
 width="36px" height="32px">
<path fill-rule="evenodd"  fill="#D7B233"
d="M15.790,0.018 C7.205,0.018 0.249,6.974 0.249,15.559 C0.249,24.145 7.205,31.101 15.790,31.101 C24.376,31.101 31.332,24.145 31.332,15.559 C31.332,6.974 24.376,0.018 15.790,0.018 ZM29.327,15.559 C29.327,22.998 23.304,29.096 15.790,29.096 C8.352,29.096 2.254,23.073 2.254,15.559 C2.254,8.121 8.277,2.023 15.790,2.023 C23.229,2.023 29.327,8.046 29.327,15.559 ZM19.995,21.093 C20.334,21.337 20.804,21.262 21.048,20.930 L21.562,20.222 C21.807,19.884 21.738,19.414 21.399,19.169 L16.981,15.954 L16.981,6.786 C16.981,6.372 16.643,6.034 16.229,6.034 L15.352,6.034 C14.938,6.034 14.600,6.372 14.600,6.786 L14.600,16.788 C14.600,17.026 14.713,17.251 14.907,17.396 L19.995,21.093 Z"/>
</svg>