<svg 
 xmlns="http://www.w3.org/2000/svg"
 xmlns:xlink="http://www.w3.org/1999/xlink"
 width="36px" height="30px">
<path fill-rule="evenodd"  fill="#D7B233"
d="M29.997,0.523 L3.928,0.523 C2.267,0.523 0.919,1.871 0.919,3.532 L0.919,21.580 C0.919,23.241 2.267,24.588 3.928,24.588 L29.997,24.588 C31.658,24.588 33.005,23.241 33.005,21.580 L33.005,3.532 C33.005,1.871 31.658,0.523 29.997,0.523 ZM3.928,2.529 L29.997,2.529 C30.549,2.529 31.000,2.980 31.000,3.532 L31.000,6.126 C29.628,7.285 27.666,8.883 21.562,13.728 C20.503,14.567 18.416,16.592 16.962,16.566 C15.509,16.592 13.415,14.567 12.363,13.728 C6.259,8.883 4.297,7.285 2.925,6.126 L2.925,3.532 C2.925,2.980 3.376,2.529 3.928,2.529 ZM29.997,22.583 L3.928,22.583 C3.376,22.583 2.925,22.131 2.925,21.580 L2.925,8.733 C4.354,9.905 6.610,11.716 11.116,15.294 C12.400,16.322 14.669,18.584 16.962,18.572 C19.244,18.591 21.493,16.347 22.809,15.294 C27.315,11.716 29.571,9.905 31.000,8.733 L31.000,21.580 C31.000,22.131 30.549,22.583 29.997,22.583 Z"/>
</svg>