<svg 
 xmlns="http://www.w3.org/2000/svg"
 xmlns:xlink="http://www.w3.org/1999/xlink"
 width="36px" height="30px">
<path fill-rule="evenodd"  fill="#D7B233"
 d="M16.422,2.244 C24.161,2.244 30.459,7.194 30.459,13.273 C30.459,19.352 24.161,24.303 16.422,24.303 C14.648,24.303 12.894,24.033 11.208,23.501 L10.255,23.200 L9.441,23.776 C7.999,24.798 5.775,25.989 3.011,26.258 C3.763,25.312 4.878,23.726 5.568,21.896 L6.013,20.724 L5.154,19.809 C3.343,17.892 2.384,15.630 2.384,13.273 C2.384,7.194 8.682,2.244 16.422,2.244 ZM16.422,0.238 C7.561,0.238 0.379,6.073 0.379,13.273 C0.379,16.256 1.626,18.989 3.694,21.188 C2.760,23.657 0.818,25.750 0.786,25.775 C0.373,26.214 0.260,26.853 0.498,27.405 C0.736,27.956 1.275,28.313 1.877,28.313 C5.731,28.313 8.770,26.703 10.594,25.412 C12.411,25.982 14.366,26.308 16.422,26.308 C25.283,26.308 32.465,20.474 32.465,13.273 C32.465,6.073 25.283,0.238 16.422,0.238 Z"/>
</svg>