<?xml version="1.0" encoding="utf-8"?>
<!-- Generator: Adobe Illustrator 22.1.0, SVG Export Plug-In . SVG Version: 6.00 Build 0)  -->
<svg version="1.1" id="katman_1" xmlns="http://www.w3.org/2000/svg" xmlns:xlink="http://www.w3.org/1999/xlink" x="0px" y="0px"
	 viewBox="0 0 30 36" style="enable-background:new 0 0 30 36;" xml:space="preserve">
<style type="text/css">
	.st0{fill:#D7B233;}
</style>
<path class="st0" d="M17,28.1c0-1.1-0.9-2-2-2s-2,0.9-2,2s0.9,2,2,2S17,29.2,17,28.1z M25,5c0-1.7-1.3-3-3-3H8C6.3,2,5,3.3,5,5v26.1
	c0,1.7,1.3,3,3,3h14c1.7,0,3-1.3,3-3V5z M23,5v26.1c0,0.6-0.5,1-1,1H8c-0.6,0-1-0.5-1-1V5c0-0.6,0.5-1,1-1h14C22.5,4,23,4.5,23,5z"
	/>
</svg>
