<svg 
 xmlns="http://www.w3.org/2000/svg"
 xmlns:xlink="http://www.w3.org/1999/xlink"
 width="36px" height="36px">
<path fill-rule="evenodd"  fill="#D7B233"
 d="M19.826,18.429 C18.027,18.429 17.162,19.432 14.211,19.432 C11.259,19.432 10.400,18.429 8.595,18.429 C3.946,18.429 0.173,22.202 0.173,26.852 L0.173,29.459 C0.173,31.120 1.520,32.467 3.181,32.467 L25.240,32.467 C26.901,32.467 28.248,31.120 28.248,29.459 L28.248,26.852 C28.248,22.202 24.475,18.429 19.826,18.429 ZM26.243,29.459 C26.243,30.010 25.792,30.462 25.240,30.462 L3.181,30.462 C2.629,30.462 2.178,30.010 2.178,29.459 L2.178,26.852 C2.178,23.311 5.055,20.435 8.595,20.435 C9.824,20.435 11.046,21.437 14.211,21.437 C17.369,21.437 18.597,20.435 19.826,20.435 C23.366,20.435 26.243,23.311 26.243,26.852 L26.243,29.459 ZM14.211,16.424 C18.641,16.424 22.232,12.833 22.232,8.403 C22.232,3.972 18.641,0.381 14.211,0.381 C9.780,0.381 6.189,3.972 6.189,8.403 C6.189,12.833 9.780,16.424 14.211,16.424 ZM14.211,2.386 C17.526,2.386 20.227,5.087 20.227,8.403 C20.227,11.718 17.526,14.419 14.211,14.419 C10.895,14.419 8.194,11.718 8.194,8.403 C8.194,5.087 10.895,2.386 14.211,2.386 Z"/>
</svg>